<?xml version="1.0"?>
<svg width="191" height="46" xmlns="http://www.w3.org/2000/svg" xmlns:svg="http://www.w3.org/2000/svg">
 <g class="layer">
  <title>Layer 1</title>
  <g id="svg_13">
   <path d="m0,11.73l0,23.48l20.05,10.79l0,-6.11l0,-26.3l-6.93,6.22l0,16.38l-1.66,-0.88l0,-14.2l-4.27,3.67l0,8.28l-1.73,-0.91l0,-17.36l15.52,-8.67l0,-6.12l-20.98,11.73z" fill="#ffffff" id="svg_1"/>
   <path d="m20.98,0l0,6.12l15.51,8.67l0,17.36l-1.71,0.91l0,-8.28l-4.27,-3.67l0,14.2l-1.67,0.88l0,-16.38l-6.92,-6.22l0,26.3l0,6.11l20.05,-10.79l0,-23.48l-20.99,-11.73z" fill="#ffffff" id="svg_2"/>
   <text fill="#ffffff" font-family="Sans-serif" font-size="10" font-weight="bold" id="svg_7" stroke-width="0" text-anchor="middle" transform="matrix(1.03269 0 0 1 0 0)" x="116.5" xml:space="preserve" y="17.5">DE LEON- CONSTRUCCIÓN</text>
   <text fill="#ffffff" font-family="Sans-serif" font-size="11" id="svg_8" stroke-width="0" text-anchor="middle" transform="matrix(1.03269 0 0 1 0 0)" x="115.08" xml:space="preserve" y="36.5">Trabajos en construcción</text>
  </g>
 </g>
</svg>